<svg width="98" height="40" viewBox="0 0 98 40" fill="none" xmlns="http://www.w3.org/2000/svg">
<path d="M3.47619 7.34694H93.8571C95.7771 7.34694 97.3333 6.61602 97.3333 5.71429V1.63265C97.3333 0.730918 95.7771 0 93.8571 0H3.47619C1.55625 0 0 0.730918 0 1.63265V5.71429C0 6.61602 1.55625 7.34694 3.47619 7.34694ZM3.47619 23.6735H93.8571C95.7771 23.6735 97.3333 22.9426 97.3333 22.0408V17.9592C97.3333 17.0574 95.7771 16.3265 93.8571 16.3265H3.47619C1.55625 16.3265 0 17.0574 0 17.9592V22.0408C0 22.9426 1.55625 23.6735 3.47619 23.6735ZM3.47619 40H93.8571C95.7771 40 97.3333 39.2691 97.3333 38.3673V34.2857C97.3333 33.384 95.7771 32.6531 93.8571 32.6531H3.47619C1.55625 32.6531 0 33.384 0 34.2857V38.3673C0 39.2691 1.55625 40 3.47619 40Z" fill="white"/>
</svg>
